<svg width="64" height="64" viewBox="0 0 64 64" fill="none" xmlns="http://www.w3.org/2000/svg">
<circle cx="32" cy="32" r="32" fill="white"/>
<path d="M42.7701 16.9229H47.0778V21.2305H42.7701V16.9229ZM42.7701 23.3844H47.0778V27.6921H42.7701V23.3844ZM36.3086 16.9229H40.6163V21.2305H36.3086V16.9229ZM36.3086 23.3844H40.6163V27.6921H36.3086V23.3844Z" fill="black"/>
<path d="M44.9238 31.9997V38.4613H19.0777V21.2305H32.0008V19.0767H19.0777C18.5064 19.0767 17.9586 19.3036 17.5547 19.7075C17.1508 20.1114 16.9238 20.6593 16.9238 21.2305V38.4613C16.9238 39.0325 17.1508 39.5804 17.5547 39.9843C17.9586 40.3882 18.5064 40.6151 19.0777 40.6151H27.6931V44.9228H23.3854V47.0767H40.6161V44.9228H36.3084V40.6151H44.9238C45.4951 40.6151 46.0429 40.3882 46.4468 39.9843C46.8508 39.5804 47.0777 39.0325 47.0777 38.4613V31.9997H44.9238ZM34.1546 44.9228H29.8469V40.6151H34.1546V44.9228Z" fill="black"/>
</svg>
