<svg width="64" height="64" viewBox="0 0 64 64" fill="none" xmlns="http://www.w3.org/2000/svg">
<circle cx="32" cy="32" r="32" fill="white"/>
<path d="M16.9844 32C16.9793 33.2997 17.4639 34.5536 18.3418 35.512C19.2196 36.4704 20.4263 37.063 21.7215 37.1716C23.0166 37.2803 24.3051 36.8971 25.3304 36.0983C26.3557 35.2996 27.0425 34.1439 27.254 32.8615H29.9075V38.0308C29.9075 38.7163 30.1798 39.3737 30.6645 39.8584C31.1492 40.3431 31.8066 40.6154 32.4921 40.6154H34.2876C34.5036 41.8939 35.192 43.0445 36.2164 43.8393C37.2408 44.6341 38.5265 45.0151 39.8185 44.9067C41.1106 44.7983 42.3148 44.2085 43.1924 43.2541C44.0701 42.2997 44.5572 41.0504 44.5572 39.7539C44.5572 38.4573 44.0701 37.208 43.1924 36.2536C42.3148 35.2992 41.1106 34.7094 39.8185 34.601C38.5265 34.4926 37.2408 34.8736 36.2164 35.6684C35.192 36.4632 34.5036 37.6138 34.2876 38.8923H32.4921C32.2636 38.8923 32.0445 38.8015 31.8829 38.64C31.7213 38.4784 31.6306 38.2593 31.6306 38.0308V25.9692C31.6306 25.7407 31.7213 25.5216 31.8829 25.36C32.0445 25.1985 32.2636 25.1077 32.4921 25.1077H34.2876C34.5036 26.3862 35.192 27.5368 36.2164 28.3316C37.2408 29.1264 38.5265 29.5074 39.8185 29.399C41.1106 29.2906 42.3148 28.7008 43.1924 27.7464C44.0701 26.792 44.5572 25.5427 44.5572 24.2462C44.5572 22.9496 44.0701 21.7003 43.1924 20.7459C42.3148 19.7915 41.1106 19.2017 39.8185 19.0933C38.5265 18.9849 37.2408 19.3659 36.2164 20.1607C35.192 20.9555 34.5036 22.1062 34.2876 23.3846H32.4921C31.8066 23.3846 31.1492 23.6569 30.6645 24.1416C30.1798 24.6263 29.9075 25.2838 29.9075 25.9692V31.1385H27.254C27.0378 29.8601 26.3493 28.7096 25.325 27.9149C24.3006 27.1202 23.015 26.7393 21.7231 26.8477C20.4311 26.9561 19.227 27.5458 18.3494 28.5001C17.4717 29.4544 16.9846 30.7035 16.9844 32ZM22.1536 35.4462C21.2397 35.4462 20.3631 35.0831 19.7168 34.4368C19.0706 33.7905 18.7075 32.914 18.7075 32C18.7075 31.086 19.0706 30.2095 19.7168 29.5632C20.3631 28.9169 21.2397 28.5539 22.1536 28.5539C23.0676 28.5539 23.9442 28.9169 24.5904 29.5632C25.2367 30.2095 25.5998 31.086 25.5998 32C25.5998 32.914 25.2367 33.7905 24.5904 34.4368C23.9442 35.0831 23.0676 35.4462 22.1536 35.4462ZM39.3844 43.2C38.4702 43.2 37.5935 42.8368 36.947 42.1904C36.3006 41.544 35.9374 40.6672 35.9374 39.753C35.9374 38.8388 36.3006 37.962 36.947 37.3156C37.5935 36.6691 38.4702 36.306 39.3844 36.306C40.2986 36.306 41.1754 36.6691 41.8218 37.3156C42.4683 37.962 42.8314 38.8388 42.8314 39.753C42.8314 40.6672 42.4683 41.544 41.8218 42.1904C41.1754 42.8368 40.2986 43.2 39.3844 43.2ZM35.9383 24.2462C35.9383 23.7935 36.0274 23.3453 36.2007 22.927C36.3739 22.5088 36.6278 22.1288 36.9479 21.8088C37.268 21.4887 37.648 21.2348 38.0662 21.0615C38.4844 20.8883 38.9326 20.7991 39.3853 20.7991C39.8379 20.7991 40.2862 20.8883 40.7044 21.0615C41.1226 21.2348 41.5026 21.4887 41.8227 21.8088C42.1428 22.1288 42.3967 22.5088 42.5699 22.927C42.7431 23.3453 42.8323 23.7935 42.8323 24.2462C42.8323 25.1604 42.4691 26.0371 41.8227 26.6836C41.1762 27.33 40.2995 27.6932 39.3853 27.6932C38.4711 27.6932 37.5943 27.33 36.9479 26.6836C36.3014 26.0371 35.9383 25.1604 35.9383 24.2462Z" fill="black"/>
</svg>
