<svg width="64" height="64" viewBox="0 0 64 64" fill="none" xmlns="http://www.w3.org/2000/svg">
<circle cx="32" cy="32" r="32" fill="white"/>
<path d="M21.291 24.2085H41.4014C41.8089 24.2085 42.2119 24.2939 42.5843 24.4592C42.9568 24.6245 43.2905 24.866 43.5639 25.1681C43.8373 25.4702 44.0444 25.8263 44.1718 26.2134C44.2992 26.6004 44.3441 27.0099 44.3035 27.4154L43.4285 36.1654C43.3565 36.8851 43.0197 37.5524 42.4835 38.0377C41.9472 38.523 41.2497 38.7918 40.5264 38.7918H26.5993C25.9248 38.7921 25.2711 38.5586 24.7494 38.131C24.2277 37.7034 23.8703 37.1083 23.7381 36.4468L21.291 24.2085Z" stroke="black" stroke-width="2" stroke-linejoin="round"/>
<path d="M21.291 24.2083L20.1098 19.479C20.0308 19.1636 19.8487 18.8837 19.5924 18.6837C19.3361 18.4836 19.0203 18.375 18.6952 18.375H16.916M25.666 44.625H28.5827M37.3327 44.625H40.2493" stroke="black" stroke-width="2" stroke-linecap="round" stroke-linejoin="round"/>
</svg>
