<svg width="64" height="64" viewBox="0 0 64 64" fill="none" xmlns="http://www.w3.org/2000/svg">
<circle cx="32" cy="32" r="32" fill="white"/>
<path d="M46.4632 42.7691H20.0017V18.7691C20.0017 18.5999 19.8632 18.4614 19.694 18.4614H17.5401C17.3709 18.4614 17.2324 18.5999 17.2324 18.7691V45.2307C17.2324 45.3999 17.3709 45.5383 17.5401 45.5383H46.4632C46.6324 45.5383 46.7709 45.3999 46.7709 45.2307V43.0768C46.7709 42.9076 46.6324 42.7691 46.4632 42.7691ZM24.0709 36.8345C24.1901 36.9537 24.3824 36.9537 24.5055 36.8345L29.8247 31.5422L34.7324 36.4807C34.8517 36.5999 35.0478 36.5999 35.167 36.4807L45.7593 25.8922C45.8786 25.773 45.8786 25.5768 45.7593 25.4576L44.2363 23.9345C44.1784 23.8772 44.1003 23.8451 44.019 23.8451C43.9376 23.8451 43.8595 23.8772 43.8017 23.9345L34.9555 32.7768L30.0555 27.846C29.9977 27.7888 29.9196 27.7567 29.8382 27.7567C29.7568 27.7567 29.6787 27.7888 29.6209 27.846L22.5517 34.873C22.4944 34.9308 22.4623 35.0089 22.4623 35.0903C22.4623 35.1717 22.4944 35.2498 22.5517 35.3076L24.0709 36.8345Z" fill="black"/>
</svg>
