<svg width="64" height="64" viewBox="0 0 64 64" fill="none" xmlns="http://www.w3.org/2000/svg">
<circle cx="32" cy="32" r="32" fill="white"/>
<g clip-path="url(#clip0_163_22)">
<path d="M39.3086 15.7162C38.8826 15.6409 38.4447 15.6714 38.0333 15.805C37.6218 15.9386 37.2495 16.1712 36.9491 16.4824L26.9348 26.2795C26.6993 26.5152 26.4203 26.703 26.1133 26.8325L18.4246 30.0765C17.7793 30.3487 17.2686 30.8662 17.0048 31.515C16.741 32.1638 16.7458 32.8909 17.018 33.5362L17.1002 33.7308L14.667 34.7574L17.1308 40.5969L19.5639 39.5703L19.6707 39.8234C19.9539 40.4521 20.4718 40.9451 21.1137 41.197C21.7556 41.4489 22.4705 41.4398 23.1057 41.1715L28.6371 46.1296C29.0107 46.463 29.4707 46.6843 29.9644 46.768C30.458 46.8518 30.9653 46.7946 31.428 46.603L32.6543 46.0856C33.294 45.8097 33.7988 45.292 34.0586 44.6456C34.3184 43.9991 34.3122 43.2761 34.0414 42.6341L31.9636 37.7095L45.794 37.4463C46.134 37.4393 46.4695 37.3678 46.7828 37.2355C47.2655 37.0225 47.6761 36.6741 47.9646 36.2324C48.1936 35.8811 48.3356 35.4804 48.379 35.0634C48.4223 34.6463 48.3658 34.225 48.214 33.8342L41.2251 17.2694C41.0562 16.8741 40.7933 16.5259 40.4594 16.2553C40.1254 15.9846 39.7304 15.7995 39.3086 15.7162ZM25.7773 29.8405L28.43 36.1277L22.1038 38.7968L19.4512 32.5096L25.7773 29.8405ZM31.6082 43.6607L30.3819 44.1781L25.8114 40.03L29.4319 38.5025L31.6082 43.6607ZM31.7065 35.0893C31.4256 35.0687 31.1433 35.0727 30.8631 35.1012L28.153 28.6777C28.3773 28.5233 28.588 28.35 28.7828 28.1597L38.792 18.296L45.7562 34.8023L31.7065 35.0893ZM43.739 23.0648L45.7922 27.9311C46.4375 27.6588 46.9482 27.1413 47.212 26.4925C47.4758 25.8437 47.471 25.1167 47.1987 24.4714C46.9265 23.8261 46.409 23.3153 45.7602 23.0516C45.1114 22.7878 44.3843 22.7925 43.739 23.0648Z" fill="black"/>
</g>
<defs>
<clipPath id="clip0_163_22">
<rect width="33.8026" height="33.8026" fill="white" transform="translate(9.8457 23.3315) rotate(-22.8755)"/>
</clipPath>
</defs>
</svg>
