<svg width="689" height="543" viewBox="0 0 689 543" fill="none" xmlns="http://www.w3.org/2000/svg">
<path d="M79.4056 543C79.4056 543 -52.2582 431.169 23.4956 299.272C99.2494 167.366 250.5 207 250.5 207C250.5 207 256.164 62.034 422.092 8.37322C588.019 -45.2876 696.234 172.405 595.238 279.197C595.238 279.197 770.186 378.038 642.135 543H79.4056Z" fill="url(#paint0_linear_142_89)"/>
<path d="M121.838 499.318C121.838 499.318 11.3628 405.572 74.9254 295.004C138.488 184.429 264.094 238.865 264.094 238.865C264.094 238.865 270.15 96.1303 409.375 51.1471C548.6 6.16391 639.399 188.653 554.656 278.175C554.656 278.175 701.45 361.033 594.006 499.318H121.838Z" fill="#F9F2FF"/>
<path d="M242.673 209.159H96.8789V214.012H242.673V209.159Z" fill="#DEE3EA"/>
<path opacity="0.5" d="M626 504.679C626 510.997 504.895 512 354.122 512C203.349 512 80 510.997 80 504.679C80 498.361 199.775 498 350.548 498C501.322 498 626 498.361 626 504.679Z" fill="#E8CEFF"/>
<path d="M106.364 93.8403V97.3674L132.52 123.868H132.979V120.812L106.364 93.8403Z" fill="#D2D2D2"/>
<path d="M119.634 123.868H123.11L106.364 106.896V110.423L119.634 123.868Z" fill="#D2D2D2"/>
<path d="M106.72 123.868H110.197L106.364 119.985V123.512L106.72 123.868Z" fill="#D2D2D2"/>
<path d="M106.364 84.9479L132.979 111.92V108.393L106.364 81.4209V84.9479Z" fill="#D2D2D2"/>
<path d="M106.364 71.9196L132.979 98.8917V95.3647L106.364 68.3994V71.9196Z" fill="#D2D2D2"/>
<path d="M106.364 59.5749L132.979 86.547V83.02L106.364 56.0479V59.5749Z" fill="#D2D2D2"/>
<path d="M132.979 74.1274V70.6004L114.775 52.1587H111.299L132.979 74.1274Z" fill="#D2D2D2"/>
<path d="M132.978 61.0651V57.5381L127.668 52.1587H124.191L132.978 61.0651Z" fill="#D2D2D2"/>
<path d="M537.602 254.791H531.155V275.256H537.602V254.791Z" fill="#181943"/>
<path d="M515.983 306.849C515.983 306.849 514.518 304.805 520.965 304.805C527.411 304.805 526.823 302.228 526.823 302.228C526.823 302.228 518.036 301.586 518.036 300.185C518.036 298.783 526.837 269.781 526.837 269.781C526.837 269.781 534.44 267.416 540.298 269.781L549.379 300.506C549.379 300.506 542.645 302.119 541.181 302.119C539.716 302.119 541.181 304.484 546.163 304.696C551.145 304.908 553.191 305.988 552.897 306.842H515.996L515.983 306.849Z" fill="#1B1C47"/>
<path d="M525.571 274.039C525.571 274.039 532.298 271.948 537.486 274.039L545.52 301.237C545.52 301.237 543.7 301.675 541.852 302.064C544.069 301.777 549.373 300.513 549.373 300.513L540.292 269.788C534.433 267.423 526.83 269.788 526.83 269.788C526.83 269.788 523.84 279.651 521.342 288.154C523.395 281.21 525.564 274.046 525.564 274.046L525.571 274.039Z" fill="#15133B"/>
<path d="M546.149 304.696C541.988 304.518 540.291 302.844 540.695 302.297C539.627 302.509 538.689 302.666 538.258 302.666C536.965 302.666 538.258 304.758 542.666 304.949C547.073 305.14 548.886 306.09 548.626 306.849H552.883C553.177 305.988 551.124 304.915 546.149 304.703V304.696Z" fill="#15133B"/>
<path d="M520.377 305.038C522.087 305.038 523.23 304.832 524.004 304.545C523.224 304.703 522.231 304.805 520.965 304.805C516.462 304.805 515.826 305.803 515.846 306.405C515.867 305.871 516.517 305.044 520.377 305.044V305.038Z" fill="#15133B"/>
<path d="M515.217 306.849H553.54C554.93 306.849 556.052 307.97 556.052 309.358V313.842H512.705V309.358C512.705 307.97 513.827 306.849 515.217 306.849Z" fill="#56489C"/>
<path d="M553.725 306.849H515.025C514.039 306.849 513.204 307.567 512.869 308.572H551.46C552.739 308.572 553.78 309.788 553.78 311.285V313.849H556.052V309.57C556.052 308.073 555.012 306.856 553.732 306.856L553.725 306.849Z" fill="#42388D"/>
<path d="M522.286 214.258C520.835 214.258 519.603 215.304 519.371 216.732C518.317 223.185 515.135 240.3 510.44 244.682C504.623 250.116 505.786 256.903 505.786 256.903H562.526C562.526 256.903 564.853 251.743 559.905 246.035C555.402 240.84 551.378 226.185 550.256 216.835C550.078 215.358 548.818 214.251 547.327 214.251H522.286V214.258Z" fill="#FFB850"/>
<path d="M559.905 246.042C555.402 240.847 551.378 226.192 550.255 216.842C550.077 215.365 548.818 214.258 547.326 214.258H522.286C520.835 214.258 519.603 215.304 519.37 216.732C519.275 217.327 519.158 218.004 519.028 218.755H543.562C545.054 218.755 546.32 219.863 546.491 221.339C547.614 230.69 551.638 245.345 556.141 250.54C558.146 252.857 558.947 255.071 559.2 256.903H562.526C562.526 256.903 564.853 251.743 559.905 246.035V246.042Z" fill="black" fill-opacity="0.1"/>
<path d="M594.786 315.352H473.971V500.391H594.786V315.352Z" fill="#4B428F"/>
<path d="M588.162 317.232H473.971V498.607H588.162V317.232Z" fill="#B9BADD"/>
<path d="M537.684 422.325H534.091H480.65V487.807H534.091H537.684H582.153V422.325H537.684Z" fill="#807EB4"/>
<path d="M535.617 332.235H533.756H480.314V405.749H533.756H535.617H581.811V332.235H535.617Z" fill="#807EB4"/>
<path d="M535.617 332.235H533.756H480.314V335.667H533.756H535.617H581.811V332.235H535.617Z" fill="#585593"/>
<path d="M535.118 342.81H533.462H485.913V397.225H533.462H535.118H576.213V342.81H535.118Z" fill="#B9BADD"/>
<path d="M535.118 342.81H533.462H485.913V346.193H533.462H535.118H576.213V342.81H535.118Z" fill="#ACAED0"/>
<path d="M533.18 412.694H528.944V497.814H533.18V412.694Z" fill="#B9BADD"/>
<path d="M541.845 455.92C541.845 461.477 540.661 465.982 539.196 465.982C537.732 465.982 536.548 461.477 536.548 455.92C536.548 450.363 537.732 445.858 539.196 445.858C540.661 445.858 541.845 450.363 541.845 455.92Z" fill="#585593"/>
<path d="M541.845 455.237C541.845 460.411 540.805 464.608 539.525 464.608C538.245 464.608 537.205 460.411 537.205 455.237C537.205 450.063 538.245 445.866 539.525 445.866C540.805 445.866 541.845 450.063 541.845 455.237Z" fill="#B9BADD"/>
<path d="M524.79 455.92C524.79 461.477 523.545 465.982 522.012 465.982C520.479 465.982 519.233 461.477 519.233 455.92C519.233 450.363 520.479 445.858 522.012 445.858C523.545 445.858 524.79 450.363 524.79 455.92Z" fill="#585593"/>
<path d="M524.79 455.237C524.79 460.411 523.75 464.608 522.47 464.608C521.191 464.608 520.15 460.411 520.15 455.237C520.15 450.063 521.191 445.866 522.47 445.866C523.75 445.866 524.79 450.063 524.79 455.237Z" fill="#B9BADD"/>
<path d="M537.684 422.325H534.091H480.65V426.303H534.091H537.684H582.153V422.325H537.684Z" fill="#585593"/>
<path d="M155.344 361.258C155.344 361.258 157.027 351.648 155.398 345.551C153.77 339.447 163.392 335.188 156.603 327.881C156.603 327.881 156.664 332.885 151.114 331.128C151.114 331.128 155.104 319.412 144.059 314.368C144.059 314.368 148.233 327.123 142.464 325.851C136.695 324.58 143.114 316.043 136.175 312.215C129.236 308.387 122.002 311.511 127.381 320.773C132.76 330.041 131.809 332.085 122.577 328.162C122.577 328.162 121.064 335.346 126.751 340.547C132.438 345.749 148.712 361.73 155.344 361.251V361.258Z" fill="#82B146"/>
<path d="M153.044 363.596C153.044 363.596 153.79 348.408 158.629 340.506C163.467 332.612 158.116 325.886 154.837 323.821C151.559 321.757 160.613 298.51 154.885 298.032C149.157 297.56 139.816 297.013 143.669 312.352C147.522 327.697 150.28 325.906 148.569 340.794C146.858 355.681 147.857 362.489 153.044 363.589V363.596Z" fill="#7E9E3E"/>
<path d="M149.13 362.626C149.13 362.626 159.32 351.744 163.015 333.528C166.711 315.312 181.062 327.472 176.21 337.622C171.358 347.772 166.047 362.988 149.13 362.632V362.626Z" fill="#82B146"/>
<path d="M130.208 367.943H176.265C176.681 367.943 177.018 367.607 177.018 367.191V356.959C177.018 356.544 176.681 356.207 176.265 356.207H130.208C129.792 356.207 129.455 356.544 129.455 356.959V367.191C129.455 367.607 129.792 367.943 130.208 367.943Z" fill="#F89E1B"/>
<path d="M165.869 396.016L172.234 367.943H134.238L141.397 396.016H165.869Z" fill="#F89E1B"/>
<path d="M144.291 394.177C147.816 394.868 165.356 396.132 165.356 396.132H141.397L134.238 368.06H164.042C164.042 368.06 137.236 369.673 138.043 371.853C138.851 374.04 140.767 393.48 144.291 394.17V394.177Z" fill="#E48725"/>
<path d="M332.283 179.91C332.283 180.915 331.469 181.729 330.463 181.729C329.457 181.729 328.643 180.915 328.643 179.91C328.643 178.906 329.457 178.092 330.463 178.092C331.469 178.092 332.283 178.906 332.283 179.91Z" fill="#D2D2D2"/>
<path d="M346.142 179.91C346.142 180.915 345.327 181.729 344.321 181.729C343.315 181.729 342.501 180.915 342.501 179.91C342.501 178.906 343.315 178.092 344.321 178.092C345.327 178.092 346.142 178.906 346.142 179.91Z" fill="#D2D2D2"/>
<path d="M359.999 179.91C359.999 180.915 359.185 181.729 358.179 181.729C357.173 181.729 356.358 180.915 356.358 179.91C356.358 178.906 357.173 178.092 358.179 178.092C359.185 178.092 359.999 178.906 359.999 179.91Z" fill="#D2D2D2"/>
<path d="M373.858 179.91C373.858 180.915 373.043 181.729 372.037 181.729C371.031 181.729 370.217 180.915 370.217 179.91C370.217 178.906 371.031 178.092 372.037 178.092C373.043 178.092 373.858 178.906 373.858 179.91Z" fill="#D2D2D2"/>
<path d="M332.283 167.525C332.283 168.53 331.469 169.343 330.463 169.343C329.457 169.343 328.643 168.53 328.643 167.525C328.643 166.52 329.457 165.707 330.463 165.707C331.469 165.707 332.283 166.52 332.283 167.525Z" fill="#D2D2D2"/>
<path d="M346.142 167.525C346.142 168.53 345.327 169.343 344.321 169.343C343.315 169.343 342.501 168.53 342.501 167.525C342.501 166.52 343.315 165.707 344.321 165.707C345.327 165.707 346.142 166.52 346.142 167.525Z" fill="#D2D2D2"/>
<path d="M359.999 167.525C359.999 168.53 359.185 169.343 358.179 169.343C357.173 169.343 356.358 168.53 356.358 167.525C356.358 166.52 357.173 165.707 358.179 165.707C359.185 165.707 359.999 166.52 359.999 167.525Z" fill="#D2D2D2"/>
<path d="M373.858 167.525C373.858 168.53 373.043 169.343 372.037 169.343C371.031 169.343 370.217 168.53 370.217 167.525C370.217 166.52 371.031 165.707 372.037 165.707C373.043 165.707 373.858 166.52 373.858 167.525Z" fill="#D2D2D2"/>
<path d="M332.283 154.415C332.283 155.42 331.469 156.233 330.463 156.233C329.457 156.233 328.643 155.42 328.643 154.415C328.643 153.41 329.457 152.597 330.463 152.597C331.469 152.597 332.283 153.41 332.283 154.415Z" fill="#D2D2D2"/>
<path d="M346.142 154.415C346.142 155.42 345.327 156.233 344.321 156.233C343.315 156.233 342.501 155.42 342.501 154.415C342.501 153.41 343.315 152.597 344.321 152.597C345.327 152.597 346.142 153.41 346.142 154.415Z" fill="#D2D2D2"/>
<path d="M359.999 154.415C359.999 155.42 359.185 156.233 358.179 156.233C357.173 156.233 356.358 155.42 356.358 154.415C356.358 153.41 357.173 152.597 358.179 152.597C359.185 152.597 359.999 153.41 359.999 154.415Z" fill="#D2D2D2"/>
<path d="M373.858 154.415C373.858 155.42 373.043 156.233 372.037 156.233C371.031 156.233 370.217 155.42 370.217 154.415C370.217 153.41 371.031 152.597 372.037 152.597C373.043 152.597 373.858 153.41 373.858 154.415Z" fill="#D2D2D2"/>
<path d="M332.283 142.029C332.283 143.034 331.469 143.847 330.463 143.847C329.457 143.847 328.643 143.034 328.643 142.029C328.643 141.024 329.457 140.211 330.463 140.211C331.469 140.211 332.283 141.024 332.283 142.029Z" fill="#D2D2D2"/>
<path d="M346.142 142.029C346.142 143.034 345.327 143.847 344.321 143.847C343.315 143.847 342.501 143.034 342.501 142.029C342.501 141.024 343.315 140.211 344.321 140.211C345.327 140.211 346.142 141.024 346.142 142.029Z" fill="#D2D2D2"/>
<path d="M359.999 142.029C359.999 143.034 359.185 143.847 358.179 143.847C357.173 143.847 356.358 143.034 356.358 142.029C356.358 141.024 357.173 140.211 358.179 140.211C359.185 140.211 359.999 141.024 359.999 142.029Z" fill="#D2D2D2"/>
<path d="M373.858 142.029C373.858 143.034 373.043 143.847 372.037 143.847C371.031 143.847 370.217 143.034 370.217 142.029C370.217 141.024 371.031 140.211 372.037 140.211C373.043 140.211 373.858 141.024 373.858 142.029Z" fill="#D2D2D2"/>
<path d="M380.557 366.029C380.557 366.029 358.062 340.301 349.816 293.677C341.569 247.047 268.836 224.538 238.841 254.285C208.846 284.033 184.852 382.106 217.099 454.458C249.339 526.809 373.371 503.515 403.366 473.767C433.361 444.02 415.178 385.045 403.051 378.087C391.807 371.634 380.557 366.029 380.557 366.029Z" fill="#EE3F4E"/>
<path d="M335.567 299.303C326.944 266.343 303.327 229.767 265.086 255.488C226.844 281.216 238.464 337.485 250.461 378.086C262.458 418.681 351.314 448.832 380.556 405.421C388.31 393.917 392.71 383.172 395.003 373.596C386.996 369.242 380.556 366.029 380.556 366.029C380.556 366.029 344.19 332.262 335.567 299.303Z" fill="#BD2E3A"/>
<path d="M270.704 372.119C258.708 331.524 247.087 275.249 285.322 249.521C286.8 248.53 288.251 247.635 289.688 246.828C282.304 246.828 274.099 249.426 265.079 255.495C226.837 281.223 238.458 337.492 250.454 378.093C260.658 412.625 326.452 439.577 363.886 420.165C326.684 424.601 279.238 401.012 270.697 372.119H270.704Z" fill="#CE3442"/>
<path d="M403.51 472.947L402.723 485.059L387.701 485.927L386.914 472.086L403.51 472.947Z" fill="#FBCEBF"/>
<path d="M385.128 504.089H433.519C433.519 504.089 434.326 493.679 427.469 494.301C420.612 494.923 411.681 489.769 406.473 484.615C401.258 479.461 386.743 481.751 385.128 484.615C383.513 487.479 385.128 504.089 385.128 504.089Z" fill="#202B38"/>
<path d="M385.053 479.434C385.053 479.434 397.926 481.108 406.905 479.816C406.905 479.816 413.878 383.377 401.594 374.436C386.579 363.507 339.64 363.049 339.64 363.049L382.959 415.496L385.06 479.44L385.053 479.434Z" fill="#121E21"/>
<path d="M426.565 465.052L431.287 476.037L418.579 484.84L411.701 473.193L426.565 465.052Z" fill="#FBCEBF"/>
<path d="M424.457 502.059L466.654 476.139C466.654 476.139 462.699 466.625 457.005 470.842C451.304 475.059 441.21 475.346 434.36 473.644C427.509 471.942 415.875 481.717 415.745 485.073C415.622 488.436 424.45 502.052 424.45 502.052L424.457 502.059Z" fill="#19232D"/>
<path d="M333.493 354.225C333.493 354.225 336.238 364.751 358.842 371.292C381.131 377.752 396.057 382.502 401.593 396.166C407.123 409.83 432.896 468.955 432.896 468.955C432.896 468.955 422.329 478.791 412.844 481.525L372.556 408.333C372.556 408.333 359.663 402.79 339.639 401.757C309.267 400.185 283.899 408.75 282.078 391.074C282.078 391.074 301.979 355.66 333.493 354.225Z" fill="#223A3F"/>
<path d="M334.157 313.493C334.157 313.493 347.42 334.402 351.245 345.373H337.203L321.88 319.863L334.157 313.493Z" fill="#FEBEAF"/>
<path d="M336.56 358.832C333.85 353.596 330.421 348.257 328.012 340.588C325.754 333.404 324.419 326.822 323.626 321.217C325.658 320.301 327.903 319.173 330.189 317.642C333.624 315.339 332.303 316.644 336.225 313.37C336.225 313.37 332.823 294.047 325.535 283.732C318.206 273.356 284.145 263.37 284.145 263.37C284.145 263.37 251.967 269.521 250.92 286.972C249.011 302.755 269.22 372.502 281.627 390.26C281.627 390.26 333.699 368.688 336.56 358.825V358.832Z" fill="#9179E5"/>
<path d="M346.729 355.434C342.903 356.938 343.006 359.447 338.763 358.107C338.763 358.107 310.526 345.072 303.977 346.104C303.977 346.104 296.299 331.162 289.051 319.098L268.199 325.502C277.712 339.651 290.66 358.968 300.46 362.071C309.082 364.805 317.931 365.496 328.107 367.027V367.157C328.107 367.157 328.935 367.211 330.249 367.362C332.713 367.758 335.259 368.209 337.9 368.763C338.551 368.934 339.208 369.118 339.858 369.324C345.51 371.114 348.727 375.373 352.669 364.204C354.913 357.84 349.808 354.217 346.722 355.427L346.729 355.434Z" fill="#FEBEAF"/>
<path d="M268.337 268.455C251.673 283.438 257.038 299.986 261.822 308.804C266.605 317.621 288.21 312.68 288.21 312.68L290.291 318.722C281.394 321.415 272.497 324.101 263.601 326.794C260.959 322.358 258.263 317.369 255.669 311.839C254.636 309.631 253.698 307.485 252.809 305.373C251.248 297.225 250.489 290.642 250.933 286.986C251.467 278.113 260.042 272.167 268.35 268.455H268.337Z" fill="black" fill-opacity="0.1"/>
<path d="M317.945 305.509C318.342 306.842 318.808 308.161 319.273 309.474C319.745 310.786 320.224 312.092 320.724 313.39C321.689 315.94 322.695 318.469 323.714 320.991C325.323 320.301 326.897 319.487 328.423 318.613C329.997 317.703 331.537 316.719 333.015 315.639C334.11 314.839 335.157 313.978 336.176 313.083L336.231 313.493C335.253 314.347 334.253 315.168 333.206 315.926C331.721 317.013 330.175 317.997 328.587 318.913C326.992 319.822 325.371 320.663 323.68 321.388L323.461 321.483V321.292C322.469 318.688 321.49 316.084 320.546 313.459C320.074 312.146 319.615 310.834 319.17 309.508C318.725 308.189 318.288 306.863 317.918 305.516H317.938L317.945 305.509Z" fill="#257BAA"/>
<path d="M307.406 374.861L412.064 368.025C412.701 367.984 413.187 367.431 413.146 366.795L412.94 363.705C412.899 363.07 412.345 362.584 411.708 362.625L307.051 369.461C306.414 369.502 305.928 370.055 305.969 370.691L306.175 373.781C306.216 374.416 306.77 374.902 307.406 374.861Z" fill="#044A6D"/>
<path d="M332.741 371.409L332.625 369.597C332.563 368.606 333.145 367.765 333.932 367.711L411.435 362.646C412.222 362.591 412.913 363.357 412.981 364.348L413.098 366.159C413.159 367.15 412.577 367.991 411.79 368.046L334.288 373.111C333.501 373.165 332.809 372.4 332.741 371.409Z" fill="#10588D"/>
<path d="M411.373 362.653L410.743 298.004C410.737 296.972 410.032 296.138 409.217 296.193L333.624 301.128C332.885 301.176 332.317 301.948 332.33 302.885L333.377 367.738L411.366 362.646L411.373 362.653Z" fill="#10588D"/>
<path d="M411.448 362.646L410.832 299.426C410.825 298.415 410.134 297.601 409.34 297.656L335.417 302.482C334.691 302.53 334.137 303.281 334.151 304.204L335.177 367.629L411.448 362.646Z" fill="#95BAE2"/>
<path d="M372.954 332.714C373.145 335.606 375.09 337.123 377 337C382.241 335.776 377.204 336.726 376 332.714C375.179 329.987 378.675 325.489 376.765 325.612C374.856 325.735 372.762 329.823 372.954 332.714Z" fill="white"/>
<path d="M280.545 264.415L284.145 257.102L304.1 261.688L303.04 273.335C303.04 273.335 290.509 284.108 280.538 264.409L280.545 264.415Z" fill="#F5B6A8"/>
<path d="M319.649 237.942C319.649 237.942 317.384 247.471 315.899 252.501C314.414 257.525 311.156 269.077 300.597 267.785C290.037 266.493 285.753 259.849 282.68 256.623C282.68 256.623 273.702 242.542 276.371 239.685C279.04 236.828 283.693 227.272 293.753 230.239C303.82 233.205 319.642 237.942 319.642 237.942H319.649Z" fill="#FEBEAF"/>
<path d="M283.064 257.143C283.064 257.143 272.621 243.13 271.245 235.44C269.87 227.751 271.361 222.72 275.707 220.362C275.707 220.362 273.346 216.021 271.669 215.529C271.669 215.529 276.699 217.012 277.883 219.186C277.883 219.186 277.692 213.663 279.868 212.487C279.868 212.487 278.876 215.837 280.06 218.01C280.06 218.01 289.552 204.415 299.119 209.063C308.686 213.711 322.982 227.033 326.835 226.349C326.835 226.349 324.659 227.532 321.305 226.541C321.305 226.541 325.843 229.699 330.873 231.189C330.873 231.189 326.719 239.07 312.306 238.462C297.894 237.853 288.327 233.205 288.327 233.205C288.327 233.205 288.21 245.926 285.048 250.458C285.048 250.458 283.673 242.768 280.32 241.777C276.966 240.786 278.835 246.801 280.012 248.974C281.196 251.141 284.741 257.655 283.064 257.163V257.143Z" fill="#221E52"/>
<path d="M263.614 326.849C268.117 325.592 272.613 324.306 277.103 322.994C279.348 322.338 281.585 321.668 283.823 320.985C286.061 320.301 288.292 319.604 290.509 318.831L290.674 318.777L290.619 318.613C288.976 313.876 287.265 309.166 285.438 304.505C284.528 302.174 283.597 299.85 282.605 297.553C281.613 295.256 280.593 292.973 279.43 290.759L279.389 290.779C280.525 293.001 281.524 295.297 282.496 297.601C283.46 299.904 284.371 302.235 285.26 304.58C287.033 309.262 288.703 313.985 290.297 318.729L290.4 318.503C288.203 319.296 285.979 320.014 283.748 320.725C281.517 321.429 279.286 322.126 277.048 322.803C272.572 324.163 268.09 325.496 263.601 326.801L263.614 326.856V326.849Z" fill="#257BAA"/>
<path d="M179.597 457.021H124.137V461.997H179.597V457.021Z" fill="#4B428F"/>
<path d="M115.083 499.96H108.944L127.511 408.203H141.581L115.083 499.96Z" fill="#807EB4"/>
<path d="M188.843 499.96H194.975L176.415 408.203H162.345L188.843 499.96Z" fill="#807EB4"/>
<path d="M184.689 396.248H118.525V408.21H184.689V396.248Z" fill="#807EB4"/>
<path d="M185.585 445.216H118.525V450.192H185.585V445.216Z" fill="#B9BADD"/>
<path d="M176.415 408.203H162.345L163.973 413.849L177.202 412.113L176.415 408.203Z" fill="#4B428F"/>
<path d="M125.342 418.928L139.001 417.13L141.581 408.203H127.511L125.342 418.928Z" fill="#4B428F"/>
<path d="M240.921 200.499H98.6308C97.6633 200.499 96.8789 201.282 96.8789 202.248V208.742C96.8789 209.708 97.6633 210.492 98.6308 210.492H240.921C241.889 210.492 242.673 209.708 242.673 208.742V202.248C242.673 201.282 241.889 200.499 240.921 200.499Z" fill="#6565A7"/>
<path d="M113.427 210.492H121.974V213.677C121.974 214.552 121.263 215.256 120.393 215.256H115.008C114.132 215.256 113.427 214.546 113.427 213.677V210.492Z" fill="#4B428F"/>
<path d="M218.181 210.492H226.728V213.677C226.728 214.552 226.017 215.256 225.147 215.256H219.762C218.886 215.256 218.181 214.546 218.181 213.677V210.492Z" fill="#4B428F"/>
<path d="M234.666 184.312V181.325H165.006C161.427 181.325 158.525 185.604 158.525 190.881V190.942C158.525 196.219 161.427 200.498 165.006 200.498H234.666V197.511C232.497 190.778 234.666 184.305 234.666 184.305V184.312Z" fill="#E75669"/>
<path opacity="0.46" d="M180.246 181.326H185.283C183.21 183.123 181.786 186.719 181.786 190.881V190.95C181.786 195.106 183.21 198.708 185.283 200.506H180.246C176.667 200.506 173.766 196.227 173.766 190.95V190.888C173.766 185.611 176.667 181.333 180.246 181.333V181.326Z" fill="#C94F64"/>
<path d="M234.667 181.326H200.504C197.643 181.326 195.323 184.75 195.323 188.968V192.857C195.323 197.074 197.643 200.499 200.504 200.499H234.667V197.512C232.497 190.779 234.667 184.306 234.667 184.306V181.319V181.326Z" fill="#BC3D5C"/>
<path d="M200.866 184.312C198.895 184.312 197.294 186.671 197.294 189.576V192.255C197.294 195.16 198.888 197.518 200.866 197.518H234.66C232.764 190.915 234.66 184.312 234.66 184.312H200.866Z" fill="#EDF0EE"/>
<path opacity="0.83" d="M234.666 184.312H200.873C198.902 184.312 197.301 186.671 197.301 189.576V190.915H233.825C233.866 187.129 234.666 184.312 234.666 184.312Z" fill="#DDE0DD"/>
<path d="M160.195 168.927V166.637H233.106C236.856 166.637 239.888 169.911 239.888 173.957V174.005C239.888 178.045 236.85 181.326 233.106 181.326H160.195V179.036C162.461 173.875 160.195 168.92 160.195 168.92V168.927Z" fill="#F89E1B"/>
<path d="M160.195 166.637H195.953C198.95 166.637 201.38 169.255 201.38 172.488V175.468C201.38 178.701 198.95 181.319 195.953 181.319H160.195V179.029C162.461 173.868 160.195 168.913 160.195 168.913V166.623V166.637Z" fill="#CF7A28"/>
<path d="M195.563 168.927C197.623 168.927 199.299 170.731 199.299 172.96V175.01C199.299 177.238 197.629 179.043 195.563 179.043H160.188C162.173 173.985 160.188 168.927 160.188 168.927H195.563Z" fill="#EDF0EE"/>
<path opacity="0.83" d="M160.195 168.927H195.569C197.629 168.927 199.306 170.731 199.306 172.96V173.985H161.078C161.037 171.087 160.195 168.927 160.195 168.927Z" fill="#DDE0DD"/>
<path d="M194.42 172.495C194.42 172.495 194.064 172.98 194.016 174.094C193.968 175.208 193.475 176.521 193.475 176.521L192.305 175.263L191.046 176.521C191.046 176.521 191.45 174.969 191.45 174.149C191.45 173.329 192.079 172.501 192.079 172.501H194.413L194.42 172.495Z" fill="#A01D3B"/>
<path d="M163.645 156.26V154.333H225.202C228.364 154.333 230.93 157.101 230.93 160.512V160.553C230.93 163.963 228.364 166.732 225.202 166.732H163.645V164.804C165.561 160.45 163.645 156.267 163.645 156.267V156.26Z" fill="#0EA954"/>
<path d="M163.645 154.326H193.831C196.363 154.326 198.41 156.541 198.41 159.268V161.783C198.41 164.511 196.357 166.725 193.831 166.725H163.645V164.798C165.561 160.444 163.645 156.261 163.645 156.261V154.333V154.326Z" fill="#009748"/>
<path d="M193.51 156.261C195.255 156.261 196.665 157.785 196.665 159.665V161.394C196.665 163.274 195.255 164.798 193.51 164.798H163.645C165.321 160.526 163.645 156.261 163.645 156.261H193.51Z" fill="#EDF0EE"/>
<path opacity="0.83" d="M163.645 156.261H193.51C195.255 156.261 196.665 157.785 196.665 159.665V160.533H164.39C164.356 158.086 163.645 156.261 163.645 156.261Z" fill="#DDE0DD"/>
<path d="M192.538 159.268C192.538 159.268 192.237 159.678 192.196 160.621C192.155 161.565 191.744 162.665 191.744 162.665L190.759 161.599L189.698 162.665C189.698 162.665 190.04 161.353 190.04 160.662C190.04 159.972 190.574 159.268 190.574 159.268H192.545H192.538Z" fill="#253D95"/>
<path d="M109.902 162.781L104.331 200.499H114.083L109.902 162.781Z" fill="#3A2332"/>
<path d="M151.845 200.499H114.083L109.901 162.781H147.664L151.845 200.499Z" fill="#4697CA"/>
<path d="M149.197 197.99H116.204L112.55 165.146H145.549L149.197 197.99Z" fill="#F6FBFC"/>
<path d="M145.577 194.374H119.106L116.177 169.323H142.647L145.577 194.374Z" fill="#E2CBA8"/>
<path d="M143.339 175.256C140.41 175.297 128.851 176.609 119.797 194.101C119.749 194.197 119.715 194.285 119.667 194.381H145.57L143.332 175.263L143.339 175.256Z" fill="#1B433B"/>
<path d="M116.868 175.27L119.106 194.374H145.351C135.989 179.74 121.843 176.11 116.875 175.27H116.868Z" fill="#417067"/>
<path d="M494.515 130.609C499.656 108.665 486.013 86.7133 464.042 81.5785C442.071 76.4436 420.093 90.0703 414.952 112.015C409.811 133.959 423.454 155.911 445.425 161.046C467.395 166.18 489.374 152.554 494.515 130.609Z" fill="#7C64AB"/>
<path d="M486.778 131.151C492.21 113.482 482.273 94.7612 464.583 89.3358C446.894 83.9104 428.15 93.8353 422.718 111.504C417.286 129.172 427.223 147.893 444.913 153.319C462.602 158.744 481.346 148.819 486.778 131.151Z" fill="#F4F4F4"/>
<path opacity="0.32" d="M450.382 154.49L482.806 103.054C480.048 98.8232 476.353 95.2551 472.021 92.644L436.318 149.275C440.459 151.995 445.235 153.827 450.382 154.49Z" fill="white"/>
<path opacity="0.32" d="M430.432 144.353L465.04 89.4588C462.837 88.748 460.53 88.2558 458.149 88.0098L426.148 138.776C427.38 140.785 428.824 142.651 430.439 144.353H430.432Z" fill="white"/>
<path d="M466.943 113.97L468.832 109.869L464.411 110.819L465.52 112.2L454.721 120.853L455.036 121.243L465.835 112.59L466.943 113.97Z" fill="#090608"/>
<path d="M443.654 106.677L439.391 105.187L440.752 109.486L442.019 108.256L454.659 121.243L455.021 120.895L442.381 107.907L443.654 106.677Z" fill="#090608"/>
<path d="M456.596 121.305C456.596 122.337 455.754 123.177 454.721 123.177C453.687 123.177 452.846 122.337 452.846 121.305C452.846 120.272 453.687 119.432 454.721 119.432C455.754 119.432 456.596 120.272 456.596 121.305Z" fill="#090608"/>
<path d="M455.309 89.459H453.79V92.6442H455.309V89.459Z" fill="#090608"/>
<path d="M455.309 149.965H453.79V153.151H455.309V149.965Z" fill="#090608"/>
<path d="M422.666 120.546V122.063H425.855V120.546H422.666Z" fill="#090608"/>
<path d="M483.244 120.546V122.063H486.433V120.546H483.244Z" fill="#090608"/>
<path d="M436.434 209.815H362.456V283.835H436.434V209.815Z" fill="white"/>
<path d="M393.526 263.506C390.679 258.674 384.451 257.054 379.613 259.897C374.774 262.741 373.152 268.961 375.999 273.793C376.985 275.468 378.374 276.753 379.969 277.601L384.766 268.646L394.621 266.151C394.388 265.242 394.032 264.354 393.532 263.499L393.526 263.506Z" fill="#EC1967"/>
<path d="M394.066 272.768L384.95 268.947L380.283 277.662C383.219 279.228 386.88 279.275 389.967 277.471C391.883 276.343 393.279 274.675 394.073 272.775L394.066 272.768Z" fill="#A3CD39"/>
<path d="M394.539 266.521L384.951 268.947L394.067 272.768C394.881 270.813 395.073 268.619 394.539 266.521Z" fill="#5697D1"/>
<path d="M387.489 278.496L384.95 268.947L380.283 277.662C382.466 278.824 385.046 279.152 387.489 278.503V278.496Z" fill="#FFCD02"/>
<path d="M420.38 263.78H403.935V266.227H420.38V263.78Z" fill="#ACBBE0"/>
<path d="M425.882 268.421H403.935V270.868H425.882V268.421Z" fill="#ACBBE0"/>
<path d="M425.882 273.062H403.935V275.509H425.882V273.062Z" fill="#ACBBE0"/>
<path d="M436.434 209.815H362.456V217.935H436.434V209.815Z" fill="#807EB4"/>
<path d="M383.042 241.394H378.635V250.259H383.042V241.394Z" fill="#AC3E63"/>
<path d="M381.543 241.852H377.136V250.259H381.543V241.852Z" fill="#EC1967"/>
<path d="M377.136 241.852L378.634 241.394H383.035L381.543 241.852H377.136Z" fill="#EF6895"/>
<path d="M407.392 241.394H402.984V250.259H407.392V241.394Z" fill="#AC3E63"/>
<path d="M405.899 241.852H401.492V250.259H405.899V241.852Z" fill="#EC1967"/>
<path d="M401.492 241.852L402.984 241.394H407.391L405.893 241.852H401.492Z" fill="#EF6895"/>
<path d="M391.309 238.537H386.901V250.26H391.309V238.537Z" fill="#AC3E63"/>
<path d="M389.81 238.934H385.402V250.26H389.81V238.934Z" fill="#EC1967"/>
<path d="M385.402 238.934L386.901 238.537H391.301L389.81 238.934H385.402Z" fill="#EF6895"/>
<path d="M399.22 236.254H394.812V250.259H399.22V236.254Z" fill="#AC3E63"/>
<path d="M397.721 236.65H393.313V250.259H397.721V236.65Z" fill="#EC1967"/>
<path d="M393.313 236.65L394.812 236.254H399.219L397.721 236.65H393.313Z" fill="#EF6895"/>
<path d="M415.597 234.265H411.189V250.259H415.597V234.265Z" fill="#AC3E63"/>
<path d="M414.098 234.661H409.69V250.259H414.098V234.661Z" fill="#EC1967"/>
<path d="M409.69 234.661L411.189 234.265H415.596L414.098 234.661H409.69Z" fill="#EF6895"/>
<path d="M417.376 249.747H376.137V250.936H417.376V249.747Z" fill="#EC1967"/>
<path d="M414.419 229.022L415.691 227.06L413.132 226.89L412.981 226.042L417.279 226.322L415.144 229.596L414.419 229.022Z" fill="#4962AC"/>
<path d="M401.909 233.684L394.984 228.284L387.593 233.793L383.747 230.793L376.855 235.796L376.267 234.976L383.753 229.549L387.593 232.542L394.984 227.026L402.032 232.529L415.583 226.514L416 227.43L401.909 233.684Z" fill="#4962AC"/>
<defs>
<linearGradient id="paint0_linear_142_89" x1="504" y1="9.99999" x2="-14" y2="711" gradientUnits="userSpaceOnUse">
<stop stop-color="#F3EFFF"/>
<stop offset="1" stop-color="#F6F3FF" stop-opacity="0"/>
</linearGradient>
</defs>
</svg>
